<svg width="512" height="499" viewBox="0 0 512 499" fill="none" xmlns="http://www.w3.org/2000/svg">
<g clip-path="url(#clip0_4437_112)">
<rect width="512" height="498.162" fill="white"/>
<path d="M458.722 378.484C458.248 378.484 457.845 378.342 457.513 378.057C457.228 377.725 457.086 377.322 457.086 376.848V343.2C457.086 342.726 457.228 342.323 457.513 341.991C457.845 341.659 458.248 341.493 458.722 341.493H461.994C462.469 341.493 462.872 341.659 463.204 341.991C463.536 342.323 463.702 342.726 463.702 343.2V346.33C464.65 344.718 465.954 343.508 467.614 342.702C469.274 341.896 471.266 341.493 473.59 341.493H476.435C476.909 341.493 477.289 341.659 477.573 341.991C477.858 342.275 478 342.655 478 343.129V346.046C478 346.52 477.858 346.899 477.573 347.184C477.289 347.468 476.909 347.611 476.435 347.611H472.167C469.606 347.611 467.59 348.369 466.12 349.887C464.65 351.357 463.915 353.373 463.915 355.934V376.848C463.915 377.322 463.749 377.725 463.417 378.057C463.085 378.342 462.682 378.484 462.208 378.484H458.722Z" fill="#2ED3B7"/>
<path d="M432.004 379.194C427.119 379.194 423.231 377.7 420.338 374.713C417.445 371.677 415.856 367.551 415.572 362.335C415.524 361.718 415.5 360.936 415.5 359.987C415.5 358.991 415.524 358.185 415.572 357.569C415.761 354.201 416.544 351.261 417.919 348.748C419.294 346.187 421.168 344.219 423.539 342.843C425.958 341.468 428.779 340.78 432.004 340.78C435.608 340.78 438.62 341.539 441.039 343.057C443.505 344.574 445.378 346.732 446.658 349.53C447.939 352.328 448.579 355.6 448.579 359.347V360.556C448.579 361.078 448.413 361.481 448.081 361.766C447.797 362.05 447.417 362.192 446.943 362.192H422.33C422.33 362.24 422.33 362.335 422.33 362.477C422.33 362.619 422.33 362.738 422.33 362.833C422.424 364.777 422.851 366.603 423.61 368.31C424.369 369.97 425.46 371.322 426.882 372.365C428.305 373.408 430.012 373.93 432.004 373.93C433.712 373.93 435.134 373.669 436.272 373.148C437.411 372.626 438.335 372.057 439.047 371.44C439.758 370.776 440.232 370.278 440.47 369.946C440.896 369.33 441.228 368.974 441.465 368.879C441.703 368.737 442.082 368.666 442.604 368.666H446.018C446.492 368.666 446.872 368.808 447.156 369.093C447.488 369.33 447.631 369.686 447.583 370.16C447.536 370.871 447.156 371.749 446.445 372.792C445.734 373.788 444.714 374.784 443.386 375.78C442.058 376.776 440.446 377.605 438.549 378.269C436.652 378.886 434.47 379.194 432.004 379.194ZM422.33 357.284H441.821V357.071C441.821 354.937 441.418 353.04 440.612 351.38C439.853 349.72 438.739 348.416 437.268 347.467C435.798 346.471 434.043 345.973 432.004 345.973C429.965 345.973 428.21 346.471 426.74 347.467C425.317 348.416 424.227 349.72 423.468 351.38C422.709 353.04 422.33 354.937 422.33 357.071V357.284Z" fill="#2ED3B7"/>
<path d="M403.932 378.483C401.276 378.483 399.118 377.985 397.458 376.989C395.798 375.946 394.589 374.5 393.83 372.65C393.072 370.753 392.692 368.524 392.692 365.963V347.183H387.143C386.669 347.183 386.266 347.041 385.934 346.756C385.65 346.424 385.507 346.021 385.507 345.547V343.128C385.507 342.654 385.65 342.275 385.934 341.99C386.266 341.658 386.669 341.492 387.143 341.492H392.692V329.612C392.692 329.138 392.834 328.759 393.119 328.474C393.451 328.142 393.854 327.976 394.328 327.976H397.672C398.146 327.976 398.525 328.142 398.81 328.474C399.142 328.759 399.308 329.138 399.308 329.612V341.492H408.129C408.603 341.492 408.983 341.658 409.267 341.99C409.599 342.275 409.765 342.654 409.765 343.128V345.547C409.765 346.021 409.599 346.424 409.267 346.756C408.983 347.041 408.603 347.183 408.129 347.183H399.308V365.465C399.308 367.694 399.687 369.449 400.446 370.729C401.205 372.01 402.556 372.65 404.501 372.65H408.84C409.314 372.65 409.694 372.816 409.978 373.148C410.31 373.433 410.476 373.812 410.476 374.286V376.847C410.476 377.321 410.31 377.724 409.978 378.056C409.694 378.341 409.314 378.483 408.84 378.483H403.932Z" fill="#2ED3B7"/>
<path d="M364.104 378.484C363.629 378.484 363.226 378.342 362.894 378.057C362.61 377.725 362.468 377.322 362.468 376.848V343.2C362.468 342.726 362.61 342.323 362.894 341.991C363.226 341.659 363.629 341.493 364.104 341.493H367.376C367.85 341.493 368.253 341.659 368.585 341.991C368.917 342.323 369.083 342.726 369.083 343.2V346.33C370.032 344.718 371.336 343.508 372.996 342.702C374.656 341.896 376.647 341.493 378.971 341.493H381.817C382.291 341.493 382.67 341.659 382.955 341.991C383.239 342.275 383.382 342.655 383.382 343.129V346.046C383.382 346.52 383.239 346.899 382.955 347.184C382.67 347.468 382.291 347.611 381.817 347.611H377.549C374.988 347.611 372.972 348.369 371.502 349.887C370.032 351.357 369.297 353.373 369.297 355.934V376.848C369.297 377.322 369.131 377.725 368.799 378.057C368.467 378.342 368.064 378.484 367.589 378.484H364.104Z" fill="#2ED3B7"/>
<path d="M337.387 379.194C332.502 379.194 328.613 377.7 325.72 374.713C322.827 371.677 321.239 367.551 320.954 362.335C320.907 361.718 320.883 360.936 320.883 359.987C320.883 358.991 320.907 358.185 320.954 357.569C321.144 354.201 321.926 351.261 323.301 348.748C324.677 346.187 326.55 344.219 328.921 342.843C331.34 341.468 334.162 340.78 337.387 340.78C340.991 340.78 344.002 341.539 346.421 343.057C348.887 344.574 350.76 346.732 352.041 349.53C353.321 352.328 353.961 355.6 353.961 359.347V360.556C353.961 361.078 353.795 361.481 353.464 361.766C353.179 362.05 352.8 362.192 352.325 362.192H327.712C327.712 362.24 327.712 362.335 327.712 362.477C327.712 362.619 327.712 362.738 327.712 362.833C327.807 364.777 328.234 366.603 328.992 368.31C329.751 369.97 330.842 371.322 332.265 372.365C333.687 373.408 335.395 373.93 337.387 373.93C339.094 373.93 340.517 373.669 341.655 373.148C342.793 372.626 343.718 372.057 344.429 371.44C345.14 370.776 345.615 370.278 345.852 369.946C346.279 369.33 346.611 368.974 346.848 368.879C347.085 368.737 347.464 368.666 347.986 368.666H351.401C351.875 368.666 352.254 368.808 352.539 369.093C352.871 369.33 353.013 369.686 352.966 370.16C352.918 370.871 352.539 371.749 351.827 372.792C351.116 373.788 350.096 374.784 348.768 375.78C347.441 376.776 345.828 377.605 343.931 378.269C342.034 378.886 339.853 379.194 337.387 379.194ZM327.712 357.284H347.203V357.071C347.203 354.937 346.8 353.04 345.994 351.38C345.235 349.72 344.121 348.416 342.651 347.467C341.181 346.471 339.426 345.973 337.387 345.973C335.347 345.973 333.593 346.471 332.122 347.467C330.7 348.416 329.609 349.72 328.85 351.38C328.091 353.04 327.712 354.937 327.712 357.071V357.284Z" fill="#2ED3B7"/>
<path d="M297.468 378.484C296.756 378.484 296.187 378.318 295.76 377.986C295.381 377.654 295.073 377.227 294.836 376.706L281.675 343.698C281.58 343.461 281.533 343.224 281.533 342.987C281.533 342.56 281.675 342.204 281.96 341.92C282.244 341.635 282.6 341.493 283.027 341.493H286.441C286.963 341.493 287.366 341.635 287.651 341.92C287.935 342.204 288.101 342.465 288.149 342.702L299.033 370.73L309.845 342.702C309.94 342.465 310.106 342.204 310.343 341.92C310.628 341.635 311.031 341.493 311.553 341.493H315.038C315.418 341.493 315.75 341.635 316.034 341.92C316.366 342.204 316.532 342.56 316.532 342.987C316.532 343.224 316.485 343.461 316.39 343.698L303.159 376.706C302.969 377.227 302.661 377.654 302.234 377.986C301.854 378.318 301.285 378.484 300.527 378.484H297.468Z" fill="#2ED3B7"/>
<path d="M244.128 378.483C243.654 378.483 243.251 378.341 242.919 378.056C242.634 377.724 242.492 377.321 242.492 376.847V343.128C242.492 342.654 242.634 342.274 242.919 341.99C243.251 341.658 243.654 341.492 244.128 341.492H247.472C247.946 341.492 248.325 341.658 248.61 341.99C248.942 342.274 249.108 342.654 249.108 343.128V346.258C250.341 344.645 251.882 343.341 253.732 342.345C255.629 341.302 258.047 340.78 260.988 340.78C264.07 340.78 266.678 341.468 268.813 342.843C270.994 344.171 272.63 346.044 273.721 348.463C274.812 350.834 275.357 353.609 275.357 356.786V376.847C275.357 377.321 275.215 377.724 274.93 378.056C274.646 378.341 274.266 378.483 273.792 378.483H270.235C269.761 378.483 269.358 378.341 269.026 378.056C268.741 377.724 268.599 377.321 268.599 376.847V357.142C268.599 353.822 267.793 351.237 266.181 349.388C264.568 347.491 262.197 346.542 259.067 346.542C256.127 346.542 253.755 347.491 251.953 349.388C250.198 351.237 249.321 353.822 249.321 357.142V376.847C249.321 377.321 249.155 377.724 248.823 378.056C248.539 378.341 248.159 378.483 247.685 378.483H244.128Z" fill="#2ED3B7"/>
<path d="M216.796 379.194C213.192 379.194 210.18 378.507 207.762 377.131C205.343 375.756 203.494 373.859 202.213 371.44C200.933 368.974 200.221 366.176 200.079 363.046C200.032 362.24 200.008 361.22 200.008 359.987C200.008 358.707 200.032 357.687 200.079 356.928C200.221 353.751 200.933 350.953 202.213 348.534C203.541 346.116 205.414 344.219 207.833 342.843C210.252 341.468 213.239 340.78 216.796 340.78C220.353 340.78 223.341 341.468 225.759 342.843C228.178 344.219 230.028 346.116 231.308 348.534C232.636 350.953 233.371 353.751 233.513 356.928C233.561 357.687 233.584 358.707 233.584 359.987C233.584 361.22 233.561 362.24 233.513 363.046C233.371 366.176 232.66 368.974 231.379 371.44C230.099 373.859 228.249 375.756 225.831 377.131C223.412 378.507 220.4 379.194 216.796 379.194ZM216.796 373.717C219.736 373.717 222.084 372.792 223.839 370.942C225.593 369.045 226.542 366.295 226.684 362.69C226.732 361.979 226.755 361.078 226.755 359.987C226.755 358.896 226.732 357.995 226.684 357.284C226.542 353.68 225.593 350.953 223.839 349.103C222.084 347.206 219.736 346.258 216.796 346.258C213.856 346.258 211.485 347.206 209.682 349.103C207.928 350.953 207.003 353.68 206.908 357.284C206.861 357.995 206.837 358.896 206.837 359.987C206.837 361.078 206.861 361.979 206.908 362.69C207.003 366.295 207.928 369.045 209.682 370.942C211.485 372.792 213.856 373.717 216.796 373.717Z" fill="#2ED3B7"/>
<path d="M177.333 379.194C173.966 379.194 171.049 378.554 168.583 377.274C166.165 375.946 164.291 374.072 162.964 371.654C161.636 369.188 160.924 366.247 160.829 362.833C160.782 362.121 160.758 361.173 160.758 359.987C160.758 358.802 160.782 357.853 160.829 357.142C160.924 353.727 161.636 350.811 162.964 348.392C164.291 345.926 166.165 344.053 168.583 342.772C171.049 341.444 173.966 340.78 177.333 340.78C180.084 340.78 182.431 341.16 184.376 341.918C186.368 342.677 188.004 343.649 189.284 344.835C190.565 346.021 191.513 347.301 192.13 348.676C192.794 350.052 193.149 351.356 193.197 352.589C193.244 353.063 193.102 353.443 192.77 353.727C192.438 354.012 192.035 354.154 191.561 354.154H188.146C187.672 354.154 187.316 354.059 187.079 353.869C186.842 353.632 186.605 353.253 186.368 352.731C185.514 350.407 184.352 348.771 182.882 347.823C181.412 346.874 179.586 346.4 177.404 346.4C174.559 346.4 172.235 347.277 170.433 349.032C168.678 350.787 167.73 353.609 167.587 357.497C167.54 359.205 167.54 360.865 167.587 362.477C167.73 366.413 168.678 369.259 170.433 371.013C172.235 372.721 174.559 373.574 177.404 373.574C179.586 373.574 181.412 373.1 182.882 372.152C184.352 371.203 185.514 369.567 186.368 367.243C186.605 366.722 186.842 366.366 187.079 366.176C187.316 365.939 187.672 365.82 188.146 365.82H191.561C192.035 365.82 192.438 365.963 192.77 366.247C193.102 366.532 193.244 366.911 193.197 367.385C193.149 368.381 192.936 369.401 192.556 370.444C192.177 371.488 191.561 372.555 190.707 373.646C189.901 374.689 188.881 375.637 187.648 376.491C186.415 377.297 184.921 377.961 183.166 378.483C181.459 378.957 179.515 379.194 177.333 379.194Z" fill="#2ED3B7"/>
<g clip-path="url(#clip1_4437_112)">
<path d="M117.943 113.823C111.256 113.845 104.639 115.186 98.4717 117.771C92.3043 120.355 86.7078 124.132 82.0031 128.884C77.2984 133.636 73.578 139.27 71.0554 145.463C68.5327 151.656 67.2574 158.286 67.3025 164.973L84.3076 164.888C84.2853 160.43 85.1413 156.011 86.8268 151.883C88.5123 147.755 90.9943 144 94.1311 140.832C97.2679 137.663 100.998 135.144 105.109 133.417C109.219 131.69 113.629 130.79 118.088 130.768C122.546 130.745 126.965 131.601 131.093 133.287C135.221 134.972 138.976 137.454 142.144 140.591C145.313 143.728 147.832 147.458 149.559 151.569C151.286 155.679 152.186 160.089 152.208 164.548L152.688 260.351C152.741 269.348 149.218 277.996 142.895 284.395C136.571 290.794 127.964 294.418 118.968 294.471C109.972 294.525 101.323 291.002 94.9241 284.678C88.5254 278.354 84.9008 269.747 84.8478 260.751L84.703 243.806L67.7575 243.831L67.8427 260.836C67.8646 267.523 69.2063 274.14 71.7909 280.308C74.3755 286.475 78.1521 292.072 82.9042 296.776C87.6563 301.481 93.2904 305.201 99.4833 307.724C105.676 310.247 112.306 311.522 118.993 311.477C132.456 311.323 145.307 305.831 154.724 296.208C159.467 291.458 163.221 285.814 165.769 279.604C168.318 273.394 169.61 266.74 169.572 260.027L169.092 164.224C168.985 150.76 163.538 137.889 153.947 128.439C144.356 118.989 131.407 113.732 117.943 113.823Z" fill="#2ED3B7"/>
<path d="M77.3224 372.223C72.8612 372.256 68.4373 371.407 64.3051 369.725C60.1728 368.043 56.4135 365.562 53.2431 362.423C50.0726 359.284 47.5535 355.55 45.8303 351.434C44.1072 347.319 43.2139 342.904 43.202 338.443L42.7219 242.639C42.6892 238.178 43.5381 233.754 45.22 229.622C46.9018 225.49 49.3834 221.73 52.5222 218.56C55.6611 215.389 59.3953 212.87 63.5105 211.147C67.6257 209.424 72.0408 208.531 76.5022 208.519C80.967 208.518 85.3867 209.413 89.4993 211.151C93.6119 212.889 97.3338 215.435 100.444 218.638C103.645 221.77 106.192 225.506 107.94 229.629C109.687 233.752 110.6 238.18 110.624 242.658L110.932 268.225L127.937 268.14L127.81 242.752C127.742 229.238 122.309 216.304 112.705 206.796C103.101 197.288 90.1135 191.984 76.5993 192.052C63.0851 192.119 50.1513 197.553 40.6431 207.157C31.135 216.761 25.8314 229.748 25.8992 243.262L26.3792 339.066C26.3932 345.763 27.7311 352.391 30.316 358.57C32.9008 364.748 36.6816 370.354 41.4409 375.066C46.2002 379.778 51.844 383.502 58.0478 386.025C64.2517 388.548 70.893 389.819 77.59 389.766C91.0453 389.517 103.852 383.94 113.2 374.259C122.76 364.621 128.119 351.592 128.108 338.017L111.103 338.102C111.135 342.564 110.286 346.988 108.605 351.12C106.923 355.252 104.441 359.011 101.302 362.182C98.1636 365.352 94.4293 367.871 90.3141 369.595C86.1989 371.318 81.7838 372.211 77.3224 372.223Z" fill="#2ED3B7"/>
</g>
<path d="M358.314 301.539C356.867 301.539 355.636 301.032 354.623 300.019C353.609 299.005 353.103 297.775 353.103 296.327V154.957C353.103 153.365 353.609 152.062 354.623 151.048C355.636 150.035 356.867 149.528 358.314 149.528H421.29C433.017 149.528 442.572 151.338 449.955 154.957C457.338 158.432 462.767 163.282 466.242 169.507C469.861 175.732 471.671 182.971 471.671 191.223C471.671 196.724 470.657 201.574 468.631 205.772C466.749 209.826 464.36 213.156 461.464 215.762C458.714 218.367 455.963 220.394 453.212 221.842C458.858 224.448 463.853 228.791 468.196 234.871C472.539 240.952 474.711 248.19 474.711 256.587C474.711 265.274 472.757 273.019 468.848 279.823C464.939 286.627 459.148 291.984 451.475 295.893C443.802 299.657 434.32 301.539 423.027 301.539H358.314ZM383.287 278.52H419.553C427.371 278.52 433.306 276.421 437.36 272.223C441.413 267.879 443.44 262.668 443.44 256.587C443.44 250.217 441.341 244.933 437.143 240.735C433.089 236.536 427.226 234.437 419.553 234.437H383.287V278.52ZM383.287 211.853H417.381C425.054 211.853 430.773 210.043 434.537 206.424C438.446 202.66 440.4 197.81 440.4 191.874C440.4 185.794 438.446 181.089 434.537 177.759C430.773 174.284 425.054 172.547 417.381 172.547H383.287V211.853Z" fill="#2ED3B7"/>
<path d="M205.625 301.539C204.177 301.539 202.947 301.032 201.933 300.019C200.92 299.005 200.413 297.775 200.413 296.327V154.957C200.413 153.365 200.92 152.062 201.933 151.048C202.947 150.035 204.177 149.528 205.625 149.528H258.611C273.233 149.528 285.249 151.772 294.66 156.26C304.215 160.748 311.381 167.408 316.158 176.239C321.081 185.07 323.614 195.855 323.759 208.595C324.048 214.965 324.193 220.611 324.193 225.534C324.193 230.456 324.048 236.03 323.759 242.255C323.469 255.719 321.008 266.866 316.375 275.697C311.743 284.383 304.721 290.898 295.311 295.241C286.046 299.44 274.174 301.539 259.697 301.539H205.625ZM230.598 276.566H258.611C266.719 276.566 273.306 275.408 278.373 273.091C283.44 270.775 287.132 267.083 289.448 262.016C291.909 256.804 293.212 250 293.357 241.603C293.501 237.26 293.574 233.496 293.574 230.311C293.719 226.981 293.719 223.724 293.574 220.539C293.574 217.209 293.501 213.445 293.357 209.247C293.067 197.375 290.099 188.617 284.453 182.971C278.807 177.325 269.831 174.501 257.526 174.501H230.598V276.566Z" fill="#2ED3B7"/>
</g>
<defs>
<clipPath id="clip0_4437_112">
<rect width="512" height="498.162" fill="white"/>
</clipPath>
<clipPath id="clip1_4437_112">
<rect width="270.977" height="270.977" fill="white" transform="translate(-97 249.567) rotate(-45.2871)"/>
</clipPath>
</defs>
</svg>
